<svg xmlns="http://www.w3.org/2000/svg" viewBox="0 0 64 64" width="64" height="64">
  <!-- Favicon AguiarXTech: águia tech estilizada sobre fundo escuro -->
  <defs>
    <linearGradient id="g" x1="0" y1="0" x2="1" y2="1">
      <stop offset="0" stop-color="#22d3ee"/>
      <stop offset="1" stop-color="#3b82f6"/>
    </linearGradient>
  </defs>
  <rect width="64" height="64" rx="14" fill="#050814"/>
  <!-- Cabeça da águia (silhueta voltada para a direita) -->
  <path fill="url(#g)" d="M14 22c0-2 1-3 3-3l10 6 9-9c2-2 5-2 6 1 1 2 0 4-1 6l-4 5 8 2c2 1 2 4 0 5l-9 3-2 8c-1 2-4 2-5 0l-2-6-9-2c-2 0-3-2-2-4l3-5-5-4c-2-1-3-3-3-3z"/>
  <!-- Olho -->
  <circle cx="35" cy="24" r="2" fill="#050814"/>
</svg>
